<?xml version="1.0" encoding="UTF-8"?><svg id="Camada_1" xmlns="http://www.w3.org/2000/svg" viewBox="0 0 815.86 187.12"><defs><style>.cls-1{fill:#fff;stroke-width:0px;}</style></defs><path class="cls-1" d="M284.56,140.24h-6.34V62.14h-21.45c0,.18-.02.36-.02.54,0,7.09,0,14.19,0,21.28,0,1.54.01,3.08.02,4.62,0,.59-.13.71-.72.74-.12,0-.24,0-.36,0-8.48,0-16.96-.01-25.44.02-.94,0-1.26-.39-1.26-1.29,0-15.42,0-30.84,0-46.26v-.71c-.28,0-.49,0-.71,0-9.33,0-18.67,0-28,0-.82,0-.9-.08-.9-.91.01-8.77.02-17.54.03-26.31,0-.22,0-.44,0-.68h-22.55v.66c0,25.78,0,51.56,0,77.34,0,.96-.03.98-.98.98-12.22,0-24.45,0-36.67,0-.92,0-.97-.06-.97-1,.02-23.85.05-47.69.07-71.54,0-.22,0-.44,0-.66-.66.63-1.32,1.21-1.93,1.84-3.49,3.61-6.97,7.24-10.45,10.85-3.25,3.37-6.49,6.75-9.75,10.11-.27.28-.36.57-.36.95,0,16.12,0,32.24,0,48.36,0,.88-.06.94-.92.94-12.51,0-25.03,0-37.54,0-.85,0-.93-.08-.93-.94,0-27.87,0-55.73,0-83.6v-.77h-.7c-17.18,0-34.36,0-51.54,0-.8,0-.74-.12-.74.74,0,44.43,0,88.86,0,133.3v.83h-6.33c0-.25,0-.48,0-.71,0-46.12,0-92.25,0-138.37,0-.65.03-1.3.12-1.93.03-.2.3-.38.51-.52.11-.07.3-.01.45-.01,21.28,0,42.57,0,63.85,0,.91,0,.98.08.98,1,0,28.29,0,56.59,0,84.88v.78h26.46v-.77c0-15.3,0-30.6-.02-45.9,0-1.27.4-2.23,1.29-3.14,5.14-5.28,10.23-10.6,15.34-15.9,3.96-4.11,7.93-8.21,11.89-12.32.13-.13.21-.31.34-.44.12-.13.26-.3.42-.33.5-.08,1.01-.16,1.52-.15,1.11,0,2.22.08,3.32.1.93.02,1.03.1,1.03,1.03,0,25.75,0,51.49,0,77.24v.73h25.9v-.78c0-25.71,0-51.42,0-77.14,0-.21-.05-.44.02-.61.08-.19.27-.35.45-.46.11-.07.3-.02.45-.02,11.09,0,22.19,0,33.28,0,.86,0,.94.08.94.94.01,8.77.02,17.54.03,26.31,0,.22,0,.44,0,.74h.69c8.99,0,17.98,0,26.98,0,.43,0,.85.02,1.28.03.44.01.66.23.65.68,0,.14,0,.27,0,.41v47.05h15.08v-.63c0-8.55,0-17.1,0-25.64,0-.86.08-.94.93-.94,10.77,0,21.54,0,32.31,0,.38,0,.72.02.92.4v83.09Z"/><path class="cls-1" d="M7.64,144.93c.06-.24.12-.48.19-.71.58-2.08,2.47-3.5,4.63-3.63,1.48-.09,2.95-.33,4.42-.57,5.55-.9,11.04-2.1,16.49-3.49,6.36-1.62,12.62-3.56,18.78-5.82,7.64-2.8,15.35-5.37,23.23-7.44,5.13-1.34,10.3-2.45,15.54-3.23,4.09-.61,8.19-1.07,12.33-1.16,3.32-.07,6.64-.14,9.95.05,8.78.51,17.19,2.57,25.09,6.53,4.39,2.2,8.43,4.91,12.12,8.15.13.11.26.22.43.37.37-.31.74-.62,1.1-.93,7.33-6.22,15.73-10.29,25.07-12.47,4.09-.95,8.24-1.57,12.43-1.7,3.08-.1,6.17-.07,9.25.01,2.31.06,4.63.21,6.92.5,3.63.46,7.25.96,10.84,1.64,10.29,1.94,20.24,5.13,30.08,8.63,6.44,2.29,12.91,4.5,19.54,6.2,5.76,1.48,11.55,2.83,17.42,3.81,2.3.38,4.61.67,6.91,1.03,2.24.35,3.99,2.42,4.01,4.66.02,2.43-1.62,4.54-3.95,4.89-1.15.17-2.35.18-3.51.08-2.6-.22-5.22-.39-7.78-.86-3.56-.65-7.1-1.45-10.6-2.37-7.19-1.88-14.19-4.41-21.24-6.74-6.54-2.16-13.09-4.28-19.67-6.28-5.77-1.76-11.64-3.13-17.6-4.08-3.15-.5-6.32-.84-9.49-1.17-3.35-.35-6.72-.38-10.09-.24-6,.25-11.86,1.27-17.51,3.35-6.28,2.31-11.85,5.77-16.65,10.45-.65.63-1.28,1.29-1.92,1.93-2.02,2.02-5.33,1.95-7.27-.14-3.92-4.21-8.45-7.63-13.61-10.18-4.44-2.2-9.12-3.65-13.99-4.52-4.75-.85-9.54-1.07-14.36-.92-3.61.12-7.21.48-10.79.99-9.58,1.37-18.89,3.88-28.08,6.85-7.07,2.28-14.1,4.7-21.15,7.04-5.69,1.89-11.42,3.65-17.27,4.99-3.81.87-7.66,1.53-11.57,1.81-1.25.09-2.5.12-3.75.12-2.4,0-4.42-1.74-4.83-4.11-.01-.07-.06-.14-.09-.21,0-.38,0-.75,0-1.13Z"/><path class="cls-1" d="M295.79,163.21c-10.25,0-23.03-4.42-36.55-9.1-17.13-5.93-36.54-12.66-56.68-12.66-21.88,0-35.75,9.01-43.83,17.2h-16.82c-8.08-8.19-21.95-17.2-43.83-17.2-20.13,0-39.55,6.72-56.68,12.66-13.52,4.68-26.3,9.1-36.55,9.1-2.68,0-4.85,2.17-4.85,4.85s2.17,4.85,4.85,4.85c11.88,0,25.41-4.68,39.72-9.64,16.41-5.68,35-12.12,53.5-12.12,15.87,0,28.71,5.26,38.17,15.62.92,1,2.22,1.58,3.58,1.58h20.98c1.36,0,2.66-.57,3.58-1.58,9.46-10.36,22.3-15.62,38.17-15.62,18.51,0,37.1,6.44,53.51,12.12,14.32,4.96,27.84,9.64,39.72,9.64,2.68,0,4.85-2.17,4.85-4.85s-2.17-4.85-4.85-4.85h0ZM295.79,163.21"/><path class="cls-1" d="M815.86,56.99c-.34,1.93-.6,3.88-1.03,5.79-1.71,7.59-4.94,14.27-11.5,18.95-4.58,3.26-9.64,5.45-15.07,6.83-7.87,2-15.88,2.91-23.98,3.08-2.6.05-5.21,0-7.97,0v36.96h-27.06V17.53c2.28-.39,4.61-.86,6.96-1.18,10.74-1.44,21.53-2.12,32.36-1.73,9.77.35,19.29,1.89,28.36,5.86,11.11,4.87,16.69,13.61,18.42,25.23.15.98.33,1.96.5,2.94v8.34ZM756.33,68.08c.22.06.38.13.54.13,6.91.06,13.81-.02,20.59-1.62,5.16-1.22,8.85-4,9.99-9.44.25-1.19.49-2.4.53-3.61.24-6.44-2.02-11.47-8.89-13.74-2.99-.99-6.23-1.45-9.39-1.65-4.42-.27-8.88-.07-13.36-.07v30.01Z"/><path class="cls-1" d="M317.26,14.55c8.97-.01,17.94-.02,26.91-.03.16,0,.32.06.53.1v113.59h-27.44V14.55Z"/><path class="cls-1" d="M355.63,125.58c0-.79,0-1.25,0-1.71,0-34.94,0-69.88-.03-104.82,0-1.23.26-1.68,1.58-1.86,11.85-1.64,23.71-3.09,35.7-2.84,10.55.22,20.89,1.6,30.56,6.2,8.72,4.14,13.58,11.25,15.06,20.6,1.39,8.75-.88,16.52-7.33,22.84-.99.97-2.11,1.8-3.26,2.77.8.39,1.59.74,2.34,1.14,7.73,4.13,12.03,10.76,13.5,19.21,1.74,10.02-.33,19.24-6.64,27.34-3.68,4.73-8.72,7.59-14.2,9.73-6.81,2.66-13.94,3.84-21.19,4.26-10.78.63-21.55.36-32.28-.79-4.59-.49-9.14-1.36-13.82-2.07ZM381.83,79.63c0,.6,0,.94,0,1.27,0,8.04,0,16.08,0,24.12,0,.75.38.91,1.01.95,1.6.08,3.19.24,4.79.3,6.24.24,12.47.21,18.58-1.31,2.89-.72,5.83-1.52,7.92-3.88,6.19-7,2.88-17.72-6.25-20.06-6.97-1.78-14.12-1.42-21.23-1.4-1.55,0-3.09,0-4.8,0ZM381.93,58.61c.23.04.39.1.55.1,4.04-.03,8.09.11,12.11-.14,3.68-.23,7.39-.61,10.98-1.41,4-.89,6.51-3.61,7.09-7.77.58-4.18-.25-9.37-6.55-11.23-1.09-.32-2.18-.65-3.29-.84-6.64-1.17-13.33-.82-20.01-.48-.86.04-.99.49-.99,1.22.02,6.52.01,13.04.02,19.56,0,.32.06.65.1.99Z"/><path class="cls-1" d="M452.91,128.68V17.24c4.57-.63,9.09-1.5,13.65-1.84,7.38-.54,14.79-1.01,22.18-.99,9.97.02,19.79,1.34,29.14,5.16,11.23,4.6,18.35,12.67,20.33,24.71,2,12.18-.5,23.27-9.38,32.37-2.77,2.84-6.14,4.81-10.01,6.28,10.88,14.21,19.69,29.53,27.29,45.83h-1.44c-9.18,0-18.36-.02-27.54.02-.94,0-1.4-.33-1.84-1.12-5.86-10.55-11.63-21.15-18.53-31.08-1.7-2.45-3.56-4.8-5.28-7.24-.6-.86-1.29-1.13-2.32-1.11-3.02.07-6.04.02-9.19.02v40.42h-27.05ZM480.01,66.3c7.43.02,14.7-.03,21.8-1.89,2.86-.75,5.39-2.15,7.04-4.75,4.96-7.81,1.45-17.42-7.34-20.12-4.72-1.45-9.58-1.77-14.47-1.71-2.33.03-4.67.22-7.03.34v28.13Z"/><path class="cls-1" d="M577.32,37.68v19.75h44.49v22.82h-44.48v24.74h53.84v23.17h-81.22V14.58h77.52v23.1h-50.15Z"/><path class="cls-1" d="M646.77,98.97c4.43,1.65,8.69,3.48,13.09,4.82,7.32,2.23,14.83,3.11,22.44,1.67,1.97-.37,3.87-1.11,5.79-1.71,3.76-1.17,5.51-5.42,4.86-9.09-.5-2.78-1.91-4.99-4.27-6.59-3.83-2.59-8.13-4.2-12.41-5.83-6.32-2.41-12.74-4.61-18.67-7.92-4.64-2.6-8.84-5.73-11.71-10.32-2.58-4.12-3.62-8.76-4.26-13.49-.96-7.03.16-13.67,4.14-19.67,4.06-6.13,9.86-10.03,16.58-12.68,8.74-3.44,17.84-4.42,27.15-3.69,8.66.68,16.89,2.9,24.5,7.17.4.23.79.47,1.31.78-2.58,7.05-5.15,14.08-7.76,21.2-5.23-3.47-11.03-4.98-16.99-5.95-4.88-.8-9.79-1.09-14.67.12-.41.1-.81.22-1.21.35-6.1,2.12-6.94,6.48-5.01,11.79.24.66.91,1.19,1.47,1.69,3.22,2.89,7.08,4.66,11.07,6.16,5.15,1.94,10.35,3.75,15.47,5.77,2.45.97,4.84,2.17,7.13,3.48,7.35,4.17,11.86,10.58,14.08,18.61,2.62,9.49,1.93,18.68-3.19,27.27-4.07,6.84-10.4,10.73-17.82,13.03-8.47,2.62-17.19,3.08-25.99,2.67-8.71-.41-17.22-1.88-25.34-5.2-2.17-.89-4.27-1.98-6.36-3.05-.31-.16-.66-.82-.56-1.09,2.36-6.79,4.78-13.55,7.19-20.32.02-.07.1-.12-.05.05Z"/><path class="cls-1" d="M339.88,164.93c0,8.07-3.42,11.54-11.31,11.54s-11.31-3.46-11.31-11.54,3.37-11.54,11.31-11.54,11.31,3.46,11.31,11.54ZM328.57,172.57c4.44,0,6.26-2.26,6.26-7.63s-1.82-7.63-6.26-7.63-6.3,2.22-6.3,7.63,1.86,7.63,6.3,7.63Z"/><path class="cls-1" d="M361.72,166.98c.4,4.26,2.17,6.12,5.9,6.12,2.97,0,4.44-1.06,5.19-3.82h4.79c-1.02,5.01-4.04,7.19-9.98,7.19-7.63,0-10.87-3.46-10.87-11.54s3.24-11.54,10.87-11.54,10.87,3.55,10.87,11.85v1.73h-16.77ZM361.63,163.91h11.76c0-5.1-1.73-7.14-5.81-7.14s-5.72,2.13-5.94,7.14Z"/><path class="cls-1" d="M400.85,169.41c0,4.92-2.93,7.05-9.72,7.05-6.39,0-9.1-2.13-9.1-7.1h4.75c0,2.84,1.33,3.99,4.53,3.99s4.48-.98,4.48-3.37c0-5.5-13.58-1.29-13.58-9.98,0-4.61,2.71-6.61,9.1-6.61s8.83,2,8.83,6.66h-4.53c0-2.53-1.24-3.55-4.3-3.55s-4.3.84-4.3,2.97c0,5.01,13.84,1.06,13.84,9.94Z"/><path class="cls-1" d="M417.89,153.35c6.7,0,9.58,3.46,9.58,11.54s-2.88,11.58-9.58,11.58c-3.24,0-5.59-.84-7.14-2.57v11h-5.01v-31.06h3.99l.71,2.49c1.55-2,3.99-2.93,7.45-2.93v-.04ZM410.75,164.89c0,5.32,1.77,7.63,5.86,7.63s5.81-2.31,5.81-7.63-1.73-7.63-5.81-7.63-5.86,2.31-5.86,7.63Z"/><path class="cls-1" d="M439.24,176.47c-5.77,0-8.21-2.09-8.21-6.92,0-5.28,3.11-7.54,10.34-7.54h4.57v-1.06c0-3.15-1.38-4.44-4.61-4.44s-4.61,1.15-4.61,3.99h-4.79c0-4.97,2.84-7.1,9.54-7.1s9.54,2.44,9.54,8.07v14.55h-3.99l-.62-2.22c-1.42,1.82-3.77,2.66-7.14,2.66ZM442.34,165.07c-3.11,0-6.3.31-6.3,4.21,0,2.57,1.33,3.55,4.53,3.55,3.55,0,5.19-1.6,5.37-5.28v-2.48h-3.59Z"/><path class="cls-1" d="M465.02,176.38c-6.7-.49-9.58-3.99-9.58-11.45,0-8.08,3.37-11.54,11.31-11.54,6.57,0,9.67,2.53,10.43,8.39h-5.06c-.58-3.15-2.22-4.48-5.37-4.48-4.39,0-6.3,2.31-6.3,7.63s1.91,7.63,6.3,7.63c3.15,0,4.75-1.33,5.37-4.48h5.06c-.71,5.5-3.5,8.08-9.32,8.34l-.49,1.86s4.35.67,4.35,3.95c0,3.11-3.19,4.88-8.92,4.88v-2.26c3.37,0,5.19-.8,5.19-2.62,0-1.55-2.44-2-4.04-2l1.06-3.86Z"/><path class="cls-1" d="M503.36,164.93c0,8.07-3.42,11.54-11.31,11.54s-11.31-3.46-11.31-11.54,3.37-11.54,11.31-11.54,11.31,3.46,11.31,11.54ZM492.04,172.57c4.44,0,6.26-2.26,6.26-7.63s-1.82-7.63-6.26-7.63-6.3,2.22-6.3,7.63,1.86,7.63,6.3,7.63Z"/><path class="cls-1" d="M529.76,176.47c-6.7,0-9.54-3.46-9.54-11.54s2.84-11.54,9.54-11.54c3.24,0,5.59.8,7.14,2.53v-10.96h5.06v31.06h-3.99l-.75-2.48c-1.55,2-3.95,2.93-7.45,2.93ZM536.9,164.93c0-5.32-1.73-7.63-5.81-7.63s-5.86,2.31-5.86,7.63,1.77,7.63,5.86,7.63,5.81-2.31,5.81-7.63Z"/><path class="cls-1" d="M569.47,164.93c0,8.07-3.42,11.54-11.31,11.54s-11.31-3.46-11.31-11.54,3.37-11.54,11.31-11.54,11.31,3.46,11.31,11.54ZM558.16,172.57c4.44,0,6.26-2.26,6.26-7.63s-1.82-7.63-6.26-7.63-6.3,2.22-6.3,7.63,1.86,7.63,6.3,7.63Z"/><path class="cls-1" d="M608.08,168.08c-.75,5.86-3.86,8.39-10.43,8.39-7.94,0-11.31-3.46-11.31-11.54s3.37-11.54,11.31-11.54c6.57,0,9.67,2.53,10.43,8.39h-5.06c-.58-3.15-2.22-4.48-5.37-4.48-4.39,0-6.3,2.31-6.3,7.63s1.91,7.63,6.3,7.63c3.15,0,4.75-1.33,5.37-4.48h5.06Z"/><path class="cls-1" d="M634.26,164.93c0,8.07-3.42,11.54-11.31,11.54s-11.31-3.46-11.31-11.54,3.37-11.54,11.31-11.54,11.31,3.46,11.31,11.54ZM622.94,172.57c4.44,0,6.26-2.26,6.26-7.63s-1.82-7.63-6.26-7.63-6.3,2.22-6.3,7.63,1.86,7.63,6.3,7.63Z"/><path class="cls-1" d="M644.16,176.03h-5.01v-22.18h3.99l.71,2.31c1.24-1.82,3.11-2.75,5.5-2.75h2.8v4.48h-2.8c-4.04,0-5.19,1.73-5.19,7.05v11.09Z"/><path class="cls-1" d="M661.6,176.03h-5.01v-22.18h3.99l.71,2.31c1.24-1.82,3.11-2.75,5.5-2.75h2.8v4.48h-2.8c-4.04,0-5.19,1.73-5.19,7.05v11.09Z"/><path class="cls-1" d="M677.66,166.98c.4,4.26,2.17,6.12,5.9,6.12,2.97,0,4.44-1.06,5.19-3.82h4.79c-1.02,5.01-4.04,7.19-9.98,7.19-7.63,0-10.87-3.46-10.87-11.54s3.24-11.54,10.87-11.54,10.87,3.55,10.87,11.85v1.73h-16.77ZM677.57,163.91h11.76c0-5.1-1.73-7.14-5.81-7.14s-5.72,2.13-5.94,7.14Z"/><path class="cls-1" d="M709.48,172.12h3.24v3.9h-5.06c-4.26,0-6.57-2.48-6.57-6.43v-12.38h-3.55v-3.37h3.55v-5.41h5.06v5.41h6.57v3.37h-6.57v11.85c0,1.82,1.06,3.06,3.33,3.06Z"/><path class="cls-1" d="M738.45,164.93c0,8.07-3.42,11.54-11.31,11.54s-11.31-3.46-11.31-11.54,3.37-11.54,11.31-11.54,11.31,3.46,11.31,11.54ZM727.14,172.57c4.44,0,6.26-2.26,6.26-7.63s-1.82-7.63-6.26-7.63-6.3,2.22-6.3,7.63,1.86,7.63,6.3,7.63Z"/><path class="cls-1" d="M748.35,176.03h-5.01v-22.18h3.99l.71,2.31c1.24-1.82,3.11-2.75,5.5-2.75h2.8v4.48h-2.8c-4.04,0-5.19,1.73-5.19,7.05v11.09Z"/></svg>